# xmcd
#
# Track frame offsets:
#	150
#	17536
#	29677
#	52145
#	81309
#	103113
#	120692
#	138886
#	152801
#	169228
#	187284
#	204749
#
# Disc length: 2968 seconds
# Revision: 3
# Processed by: cddbd v1.5.2PL0 Copyright (c) Steve Scherf et al.
# Submitted via: dBpowerAMP V12.0
#
DISCID=af0b960c
DTITLE=The Biscuit Burners - A Mountain Apart
DYEAR=2005
DGENRE=Country
TTITLE0=Ridgeway Backroads (a.k.a. The Colorado Song)
TTITLE1=Laurel Grove
TTITLE2=A Mountain Apart
TTITLE3=Hera Lynn
TTITLE4=Off To The Sea
TTITLE5=Pinchtown Hop
TTITLE6=Don't Leave Me Feelin' Blue
TTITLE7=Donna Rose
TTITLE8=Stone Grey
TTITLE9=The Hatching Season
TTITLE10=Harriet's Frog
TTITLE11=Sweet Whiskey
EXTD=
EXTT0=
EXTT1=
EXTT2=
EXTT3=
EXTT4=
EXTT5=
EXTT6=
EXTT7=
EXTT8=
EXTT9=
EXTT10=
EXTT11=
PLAYORDER=
